<svg viewBox="0 0 120 60" xmlns="http://www.w3.org/2000/svg">
  <defs>
    <linearGradient id="bowTieGradient" x1="0%" y1="0%" x2="0%" y2="100%">
      <stop offset="0%" style="stop-color:#1a1a1a;stop-opacity:1" />
      <stop offset="30%" style="stop-color:#0d0d0d;stop-opacity:1" />
      <stop offset="70%" style="stop-color:#000000;stop-opacity:1" />
      <stop offset="100%" style="stop-color:#1a1a1a;stop-opacity:1" />
    </linearGradient>
    <linearGradient id="centerKnot" x1="0%" y1="0%" x2="100%" y2="0%">
      <stop offset="0%" style="stop-color:#2d2d2d;stop-opacity:1" />
      <stop offset="50%" style="stop-color:#1a1a1a;stop-opacity:1" />
      <stop offset="100%" style="stop-color:#0d0d0d;stop-opacity:1" />
    </linearGradient>
  </defs>
  
  <!-- Left wing of bow tie -->
  <path d="M5 30 Q15 10 45 15 Q50 25 50 30 Q50 35 45 45 Q15 50 5 30 Z" 
        fill="url(#bowTieGradient)" stroke="#404040" stroke-width="1" />
  
  <!-- Right wing of bow tie -->
  <path d="M115 30 Q105 10 75 15 Q70 25 70 30 Q70 35 75 45 Q105 50 115 30 Z" 
        fill="url(#bowTieGradient)" stroke="#404040" stroke-width="1" />
  
  <!-- Center knot -->
  <ellipse cx="60" cy="30" rx="12" ry="18" fill="url(#centerKnot)" />
  <ellipse cx="60" cy="30" rx="10" ry="16" fill="none" stroke="#404040" stroke-width="1" />
  
  <!-- Knot texture -->
  <rect x="55" y="20" width="10" height="3" fill="#404040" opacity="0.4" />
  <rect x="55" y="27" width="10" height="3" fill="#404040" opacity="0.4" />
  <rect x="55" y="34" width="10" height="3" fill="#404040" opacity="0.4" />
  
  <!-- Wing highlights -->
  <ellipse cx="25" cy="25" rx="8" ry="5" fill="#404040" opacity="0.5" />
  <ellipse cx="95" cy="25" rx="8" ry="5" fill="#404040" opacity="0.5" />
  
  <!-- Wing texture lines -->
  <path d="M15 25 Q25 20 35 25" stroke="#404040" stroke-width="0.5" fill="none" opacity="0.4" />
  <path d="M15 35 Q25 40 35 35" stroke="#404040" stroke-width="0.5" fill="none" opacity="0.4" />
  <path d="M85 25 Q95 20 105 25" stroke="#404040" stroke-width="0.5" fill="none" opacity="0.4" />
  <path d="M85 35 Q95 40 105 35" stroke="#404040" stroke-width="0.5" fill="none" opacity="0.4" />
</svg>