<svg viewBox="0 0 120 140" xmlns="http://www.w3.org/2000/svg">
  <defs>
    <linearGradient id="hatGradient" x1="0%" y1="0%" x2="0%" y2="100%">
      <stop offset="0%" style="stop-color:#2d2d2d;stop-opacity:1" />
      <stop offset="30%" style="stop-color:#1a1a1a;stop-opacity:1" />
      <stop offset="70%" style="stop-color:#0d0d0d;stop-opacity:1" />
      <stop offset="100%" style="stop-color:#000000;stop-opacity:1" />
    </linearGradient>
    <linearGradient id="hatBrim" x1="0%" y1="0%" x2="0%" y2="100%">
      <stop offset="0%" style="stop-color:#1a1a1a;stop-opacity:1" />
      <stop offset="100%" style="stop-color:#0d0d0d;stop-opacity:1" />
    </linearGradient>
    <linearGradient id="bandGradient" x1="0%" y1="0%" x2="0%" y2="100%">
      <stop offset="0%" style="stop-color:#8b4513;stop-opacity:1" />
      <stop offset="50%" style="stop-color:#654321;stop-opacity:1" />
      <stop offset="100%" style="stop-color:#4a2c17;stop-opacity:1" />
    </linearGradient>
  </defs>
  
  <!-- Hat brim (bottom) -->
  <ellipse cx="60" cy="115" rx="55" ry="12" fill="url(#hatBrim)" />
  <!-- Brim shadow -->
  <ellipse cx="60" cy="118" rx="50" ry="8" fill="#000000" opacity="0.3" />
  
  <!-- Main hat crown -->
  <rect x="35" y="25" width="50" height="90" rx="2" fill="url(#hatGradient)" />
  
  <!-- Hat band -->
  <rect x="33" y="85" width="54" height="12" fill="url(#bandGradient)" />
  
  <!-- Hat band buckle -->
  <rect x="55" y="88" width="10" height="6" fill="#ffd700" stroke="#d4af37" stroke-width="1" />
  <rect x="57" y="89.5" width="6" height="3" fill="none" stroke="#b8860b" stroke-width="0.5" />
  
  <!-- Top of hat -->
  <ellipse cx="60" cy="25" rx="25" ry="5" fill="url(#hatGradient)" />
  
  <!-- Highlight on crown -->
  <rect x="40" y="30" width="8" height="50" fill="#404040" opacity="0.4" />
  
  <!-- Side shadow -->
  <rect x="75" y="35" width="8" height="70" fill="#000000" opacity="0.3" />
  
  <!-- Hat texture lines -->
  <path d="M38 40 L82 40" stroke="#404040" stroke-width="0.5" opacity="0.3" />
  <path d="M38 55 L82 55" stroke="#404040" stroke-width="0.5" opacity="0.3" />
  <path d="M38 70 L82 70" stroke="#404040" stroke-width="0.5" opacity="0.3" />
</svg>