<svg viewBox="0 0 240 120" xmlns="http://www.w3.org/2000/svg">
  <defs>
    <linearGradient id="victorianGradient" x1="0%" y1="0%" x2="0%" y2="100%">
      <stop offset="0%" style="stop-color:#2d2d2d;stop-opacity:1" />
      <stop offset="50%" style="stop-color:#1a1a1a;stop-opacity:1" />
      <stop offset="100%" style="stop-color:#0d0d0d;stop-opacity:1" />
    </linearGradient>
  </defs>
  
  <!-- Main mustache body -->
  <ellipse cx="120" cy="60" rx="80" ry="25" fill="url(#victorianGradient)" />
  
  <!-- Left elaborate curl -->
  <path d="M40 60 Q15 40 10 20 Q5 10 15 5 Q25 8 35 25 Q40 45 45 60 Q50 75 40 85 Q25 90 20 80 Q25 70 35 65" 
        fill="url(#victorianGradient)" stroke="#404040" stroke-width="1" />
  
  <!-- Right elaborate curl -->
  <path d="M200 60 Q225 40 230 20 Q235 10 225 5 Q215 8 205 25 Q200 45 195 60 Q190 75 200 85 Q215 90 220 80 Q215 70 205 65" 
        fill="url(#victorianGradient)" stroke="#404040" stroke-width="1" />
  
  <!-- Center styling -->
  <ellipse cx="120" cy="55" rx="8" ry="5" fill="#f5f5f5" opacity="0.1" />
  
  <!-- Ornate details -->
  <path d="M80 50 Q90 45 100 50 Q110 55 120 50 Q130 45 140 50 Q150 55 160 50" 
        stroke="#404040" stroke-width="2" fill="none" opacity="0.4" />
  
  <!-- Highlight -->
  <ellipse cx="120" cy="48" rx="70" ry="8" fill="#404040" opacity="0.5" />
</svg>
